<svg xmlns="http://www.w3.org/2000/svg" viewBox="0 0 520 520" width="520" height="520">
  <defs>
    <radialGradient id="bgGrad" cx="50%" cy="50%" r="50%">
      <stop offset="0%" stop-color="#FDF6EC"/>
      <stop offset="100%" stop-color="#F0DFC0"/>
    </radialGradient>
    <linearGradient id="potGrad" x1="0%" y1="0%" x2="100%" y2="100%">
      <stop offset="0%" stop-color="#D4734A"/>
      <stop offset="60%" stop-color="#C4623A"/>
      <stop offset="100%" stop-color="#9E4A2A"/>
    </linearGradient>
    <linearGradient id="lidGrad" x1="0%" y1="0%" x2="0%" y2="100%">
      <stop offset="0%" stop-color="#D4734A"/>
      <stop offset="100%" stop-color="#B85830"/>
    </linearGradient>
    <linearGradient id="steamGrad" x1="0%" y1="100%" x2="0%" y2="0%">
      <stop offset="0%" stop-color="#C4623A" stop-opacity="0.6"/>
      <stop offset="100%" stop-color="#C4623A" stop-opacity="0"/>
    </linearGradient>
    <radialGradient id="circleGrad" cx="50%" cy="50%" r="50%">
      <stop offset="0%" stop-color="#1A1208"/>
      <stop offset="100%" stop-color="#2D1E0C"/>
    </radialGradient>
    <linearGradient id="goldGrad" x1="0%" y1="0%" x2="100%" y2="0%">
      <stop offset="0%" stop-color="#C4623A"/>
      <stop offset="50%" stop-color="#F5A623"/>
      <stop offset="100%" stop-color="#C4623A"/>
    </linearGradient>
    <linearGradient id="spoonGrad" x1="0%" y1="0%" x2="100%" y2="100%">
      <stop offset="0%" stop-color="#F5E6C8"/>
      <stop offset="100%" stop-color="#E8D0A0"/>
    </linearGradient>
    <!-- Sunflower yellow -->
    <radialGradient id="sunCenter" cx="50%" cy="50%" r="50%">
      <stop offset="0%" stop-color="#8B5E0A"/>
      <stop offset="100%" stop-color="#5C3A06"/>
    </radialGradient>
    <linearGradient id="petalGrad" x1="0%" y1="0%" x2="0%" y2="100%">
      <stop offset="0%" stop-color="#FFD700"/>
      <stop offset="100%" stop-color="#F5A623"/>
    </linearGradient>
    <linearGradient id="stemGrad" x1="0%" y1="0%" x2="100%" y2="0%">
      <stop offset="0%" stop-color="#4A6B1A"/>
      <stop offset="100%" stop-color="#5C6B3A"/>
    </linearGradient>
    <!-- Blue accent (sky blue like Ukrainian flag) -->
    <linearGradient id="blueAccent" x1="0%" y1="0%" x2="100%" y2="0%">
      <stop offset="0%" stop-color="#1565C0" stop-opacity="0"/>
      <stop offset="30%" stop-color="#1976D2"/>
      <stop offset="70%" stop-color="#1976D2"/>
      <stop offset="100%" stop-color="#1565C0" stop-opacity="0"/>
    </linearGradient>
    <filter id="softShadow" x="-20%" y="-20%" width="140%" height="140%">
      <feDropShadow dx="0" dy="5" stdDeviation="10" flood-color="#1A1208" flood-opacity="0.22"/>
    </filter>
    <filter id="steamBlur">
      <feGaussianBlur stdDeviation="1.8"/>
    </filter>
    <filter id="petalGlow">
      <feDropShadow dx="0" dy="1" stdDeviation="2" flood-color="#F5A623" flood-opacity="0.4"/>
    </filter>
  </defs>

  <!-- ══ OUTER BACKGROUND ══ -->
  <circle cx="260" cy="260" r="248" fill="url(#bgGrad)" stroke="#E8D5B0" stroke-width="2"/>

  <!-- ══ VYSHYVANKA EMBROIDERY BORDER — traditional Ukrainian cross-stitch ring ══ -->
  <!-- Outer ring base -->
  <circle cx="260" cy="260" r="234" fill="none" stroke="#C4623A" stroke-width="0.8" opacity="0.3"/>

  <!-- Cross-stitch diamond pattern around the circle — Vyshyvanka motif -->
  <g opacity="0.75">
    <!-- Top section diamonds -->
    <g fill="#C4623A">
      <!-- Diamond clusters evenly around ring, radius ~234 -->
      <!-- We'll place cross-stitch X marks at ~24 positions -->
      <!-- Using transform rotate trick -->
      <g transform="rotate(0,260,260)">
        <path d="M256,28 L260,23 L264,28 L260,33Z"/>
        <path d="M253,32 L260,27 L267,32 L260,37Z" fill="none" stroke="#C4623A" stroke-width="0.8"/>
      </g>
      <g transform="rotate(15,260,260)">
        <path d="M256,28 L260,23 L264,28 L260,33Z"/>
      </g>
      <g transform="rotate(30,260,260)">
        <path d="M256,28 L260,23 L264,28 L260,33Z"/>
        <path d="M253,32 L260,27 L267,32 L260,37Z" fill="none" stroke="#C4623A" stroke-width="0.8"/>
      </g>
      <g transform="rotate(45,260,260)"><path d="M256,28 L260,23 L264,28 L260,33Z"/></g>
      <g transform="rotate(60,260,260)">
        <path d="M256,28 L260,23 L264,28 L260,33Z"/>
        <path d="M253,32 L260,27 L267,32 L260,37Z" fill="none" stroke="#C4623A" stroke-width="0.8"/>
      </g>
      <g transform="rotate(75,260,260)"><path d="M256,28 L260,23 L264,28 L260,33Z"/></g>
      <g transform="rotate(90,260,260)">
        <path d="M256,28 L260,23 L264,28 L260,33Z"/>
        <path d="M253,32 L260,27 L267,32 L260,37Z" fill="none" stroke="#C4623A" stroke-width="0.8"/>
      </g>
      <g transform="rotate(105,260,260)"><path d="M256,28 L260,23 L264,28 L260,33Z"/></g>
      <g transform="rotate(120,260,260)">
        <path d="M256,28 L260,23 L264,28 L260,33Z"/>
        <path d="M253,32 L260,27 L267,32 L260,37Z" fill="none" stroke="#C4623A" stroke-width="0.8"/>
      </g>
      <g transform="rotate(135,260,260)"><path d="M256,28 L260,23 L264,28 L260,33Z"/></g>
      <g transform="rotate(150,260,260)">
        <path d="M256,28 L260,23 L264,28 L260,33Z"/>
        <path d="M253,32 L260,27 L267,32 L260,37Z" fill="none" stroke="#C4623A" stroke-width="0.8"/>
      </g>
      <g transform="rotate(165,260,260)"><path d="M256,28 L260,23 L264,28 L260,33Z"/></g>
      <g transform="rotate(180,260,260)">
        <path d="M256,28 L260,23 L264,28 L260,33Z"/>
        <path d="M253,32 L260,27 L267,32 L260,37Z" fill="none" stroke="#C4623A" stroke-width="0.8"/>
      </g>
      <g transform="rotate(195,260,260)"><path d="M256,28 L260,23 L264,28 L260,33Z"/></g>
      <g transform="rotate(210,260,260)">
        <path d="M256,28 L260,23 L264,28 L260,33Z"/>
        <path d="M253,32 L260,27 L267,32 L260,37Z" fill="none" stroke="#C4623A" stroke-width="0.8"/>
      </g>
      <g transform="rotate(225,260,260)"><path d="M256,28 L260,23 L264,28 L260,33Z"/></g>
      <g transform="rotate(240,260,260)">
        <path d="M256,28 L260,23 L264,28 L260,33Z"/>
        <path d="M253,32 L260,27 L267,32 L260,37Z" fill="none" stroke="#C4623A" stroke-width="0.8"/>
      </g>
      <g transform="rotate(255,260,260)"><path d="M256,28 L260,23 L264,28 L260,33Z"/></g>
      <g transform="rotate(270,260,260)">
        <path d="M256,28 L260,23 L264,28 L260,33Z"/>
        <path d="M253,32 L260,27 L267,32 L260,37Z" fill="none" stroke="#C4623A" stroke-width="0.8"/>
      </g>
      <g transform="rotate(285,260,260)"><path d="M256,28 L260,23 L264,28 L260,33Z"/></g>
      <g transform="rotate(300,260,260)">
        <path d="M256,28 L260,23 L264,28 L260,33Z"/>
        <path d="M253,32 L260,27 L267,32 L260,37Z" fill="none" stroke="#C4623A" stroke-width="0.8"/>
      </g>
      <g transform="rotate(315,260,260)"><path d="M256,28 L260,23 L264,28 L260,33Z"/></g>
      <g transform="rotate(330,260,260)">
        <path d="M256,28 L260,23 L264,28 L260,33Z"/>
        <path d="M253,32 L260,27 L267,32 L260,37Z" fill="none" stroke="#C4623A" stroke-width="0.8"/>
      </g>
      <g transform="rotate(345,260,260)"><path d="M256,28 L260,23 L264,28 L260,33Z"/></g>
    </g>
    <!-- Blue accent dots in between (Vyshyvanka often has blue+red/terracotta combo) -->
    <g fill="#1976D2" opacity="0.65">
      <g transform="rotate(7.5,260,260)"><circle cx="260" cy="30" r="2.2"/></g>
      <g transform="rotate(22.5,260,260)"><circle cx="260" cy="30" r="2.2"/></g>
      <g transform="rotate(37.5,260,260)"><circle cx="260" cy="30" r="2.2"/></g>
      <g transform="rotate(52.5,260,260)"><circle cx="260" cy="30" r="2.2"/></g>
      <g transform="rotate(67.5,260,260)"><circle cx="260" cy="30" r="2.2"/></g>
      <g transform="rotate(82.5,260,260)"><circle cx="260" cy="30" r="2.2"/></g>
      <g transform="rotate(97.5,260,260)"><circle cx="260" cy="30" r="2.2"/></g>
      <g transform="rotate(112.5,260,260)"><circle cx="260" cy="30" r="2.2"/></g>
      <g transform="rotate(127.5,260,260)"><circle cx="260" cy="30" r="2.2"/></g>
      <g transform="rotate(142.5,260,260)"><circle cx="260" cy="30" r="2.2"/></g>
      <g transform="rotate(157.5,260,260)"><circle cx="260" cy="30" r="2.2"/></g>
      <g transform="rotate(172.5,260,260)"><circle cx="260" cy="30" r="2.2"/></g>
      <g transform="rotate(187.5,260,260)"><circle cx="260" cy="30" r="2.2"/></g>
      <g transform="rotate(202.5,260,260)"><circle cx="260" cy="30" r="2.2"/></g>
      <g transform="rotate(217.5,260,260)"><circle cx="260" cy="30" r="2.2"/></g>
      <g transform="rotate(232.5,260,260)"><circle cx="260" cy="30" r="2.2"/></g>
      <g transform="rotate(247.5,260,260)"><circle cx="260" cy="30" r="2.2"/></g>
      <g transform="rotate(262.5,260,260)"><circle cx="260" cy="30" r="2.2"/></g>
      <g transform="rotate(277.5,260,260)"><circle cx="260" cy="30" r="2.2"/></g>
      <g transform="rotate(292.5,260,260)"><circle cx="260" cy="30" r="2.2"/></g>
      <g transform="rotate(307.5,260,260)"><circle cx="260" cy="30" r="2.2"/></g>
      <g transform="rotate(322.5,260,260)"><circle cx="260" cy="30" r="2.2"/></g>
      <g transform="rotate(337.5,260,260)"><circle cx="260" cy="30" r="2.2"/></g>
      <g transform="rotate(352.5,260,260)"><circle cx="260" cy="30" r="2.2"/></g>
    </g>
  </g>

  <!-- ══ DARK INNER CIRCLE ══ -->
  <circle cx="260" cy="218" r="150" fill="url(#circleGrad)" filter="url(#softShadow)"/>

  <!-- ══ STEAM ══ -->
  <path d="M222 128 Q215 113 222 98 Q229 83 222 68" fill="none" stroke="url(#steamGrad)" stroke-width="3.8" stroke-linecap="round" filter="url(#steamBlur)" opacity="0.95"/>
  <path d="M260 120 Q253 105 260 90 Q267 75 260 60" fill="none" stroke="url(#steamGrad)" stroke-width="4.2" stroke-linecap="round" filter="url(#steamBlur)" opacity="0.95"/>
  <path d="M298 128 Q305 113 298 98 Q291 83 298 68" fill="none" stroke="url(#steamGrad)" stroke-width="3.8" stroke-linecap="round" filter="url(#steamBlur)" opacity="0.95"/>

  <!-- ══ POT ══ -->
  <ellipse cx="260" cy="222" rx="90" ry="10" fill="#9E4A2A" opacity="0.28"/>
  <rect x="175" y="153" width="170" height="102" rx="22" fill="url(#potGrad)"/>
  <path d="M195 163 Q260 153 325 163" fill="none" stroke="#E07050" stroke-width="2.2" stroke-linecap="round" opacity="0.45"/>
  <ellipse cx="260" cy="255" rx="85" ry="11" fill="#9E4A2A" opacity="0.55"/>

  <!-- ══ LID ══ -->
  <ellipse cx="260" cy="153" rx="92" ry="13" fill="#B85830"/>
  <ellipse cx="260" cy="150" rx="92" ry="13" fill="url(#lidGrad)"/>
  <ellipse cx="260" cy="147" rx="88" ry="9" fill="none" stroke="#E07050" stroke-width="1.8" opacity="0.35"/>
  <ellipse cx="260" cy="141" rx="16" ry="7" fill="#D4734A"/>
  <ellipse cx="260" cy="136" rx="12" ry="7" fill="#C4623A"/>
  <ellipse cx="260" cy="133" rx="8" ry="4" fill="#E07050" opacity="0.55"/>

  <!-- ══ HANDLES ══ -->
  <path d="M175 183 Q147 183 147 204 Q147 225 175 225" fill="none" stroke="#9E4A2A" stroke-width="12" stroke-linecap="round"/>
  <path d="M175 183 Q149 183 149 204 Q149 225 175 225" fill="none" stroke="#C4623A" stroke-width="7" stroke-linecap="round"/>
  <path d="M345 183 Q373 183 373 204 Q373 225 345 225" fill="none" stroke="#9E4A2A" stroke-width="12" stroke-linecap="round"/>
  <path d="M345 183 Q371 183 371 204 Q371 225 345 225" fill="none" stroke="#C4623A" stroke-width="7" stroke-linecap="round"/>

  <!-- ══ WOODEN SPOON ══ -->
  <g transform="rotate(35, 312, 168)">
    <rect x="307" y="98" width="10" height="78" rx="5" fill="url(#spoonGrad)"/>
    <line x1="310" y1="108" x2="314" y2="108" stroke="#D4B87A" stroke-width="0.8" opacity="0.55"/>
    <line x1="310" y1="118" x2="314" y2="118" stroke="#D4B87A" stroke-width="0.8" opacity="0.55"/>
    <line x1="310" y1="128" x2="314" y2="128" stroke="#D4B87A" stroke-width="0.8" opacity="0.55"/>
    <line x1="310" y1="138" x2="314" y2="138" stroke="#D4B87A" stroke-width="0.8" opacity="0.55"/>
    <ellipse cx="312" cy="93" rx="10" ry="14" fill="url(#spoonGrad)"/>
    <ellipse cx="312" cy="93" rx="7" ry="10" fill="#D4B87A" opacity="0.35"/>
  </g>

  <!-- ══════════════════════════════════════════════════════════
       SUNFLOWERS — most iconic Ukrainian symbol
       Left sunflower                                          ══ -->
  <g transform="translate(98, 218)">
    <!-- Stem with slight curve -->
    <path d="M0,0 Q-5,30 0,65" fill="none" stroke="url(#stemGrad)" stroke-width="4.5" stroke-linecap="round"/>
    <!-- Two leaves on stem -->
    <path d="M-2,38 Q-22,28 -18,14 Q-4,22 -2,38Z" fill="#5C6B3A" opacity="0.85"/>
    <path d="M2,50 Q22,40 18,26 Q4,34 2,50Z" fill="#5C6B3A" opacity="0.85"/>
    <!-- Petals (16 petals) -->
    <g filter="url(#petalGlow)">
      <g transform="rotate(0,0,0)"><ellipse cx="0" cy="-21" rx="5" ry="11" fill="url(#petalGrad)"/></g>
      <g transform="rotate(22.5,0,0)"><ellipse cx="0" cy="-21" rx="5" ry="11" fill="url(#petalGrad)"/></g>
      <g transform="rotate(45,0,0)"><ellipse cx="0" cy="-21" rx="5" ry="11" fill="url(#petalGrad)"/></g>
      <g transform="rotate(67.5,0,0)"><ellipse cx="0" cy="-21" rx="5" ry="11" fill="url(#petalGrad)"/></g>
      <g transform="rotate(90,0,0)"><ellipse cx="0" cy="-21" rx="5" ry="11" fill="url(#petalGrad)"/></g>
      <g transform="rotate(112.5,0,0)"><ellipse cx="0" cy="-21" rx="5" ry="11" fill="url(#petalGrad)"/></g>
      <g transform="rotate(135,0,0)"><ellipse cx="0" cy="-21" rx="5" ry="11" fill="url(#petalGrad)"/></g>
      <g transform="rotate(157.5,0,0)"><ellipse cx="0" cy="-21" rx="5" ry="11" fill="url(#petalGrad)"/></g>
      <g transform="rotate(180,0,0)"><ellipse cx="0" cy="-21" rx="5" ry="11" fill="url(#petalGrad)"/></g>
      <g transform="rotate(202.5,0,0)"><ellipse cx="0" cy="-21" rx="5" ry="11" fill="url(#petalGrad)"/></g>
      <g transform="rotate(225,0,0)"><ellipse cx="0" cy="-21" rx="5" ry="11" fill="url(#petalGrad)"/></g>
      <g transform="rotate(247.5,0,0)"><ellipse cx="0" cy="-21" rx="5" ry="11" fill="url(#petalGrad)"/></g>
      <g transform="rotate(270,0,0)"><ellipse cx="0" cy="-21" rx="5" ry="11" fill="url(#petalGrad)"/></g>
      <g transform="rotate(292.5,0,0)"><ellipse cx="0" cy="-21" rx="5" ry="11" fill="url(#petalGrad)"/></g>
      <g transform="rotate(315,0,0)"><ellipse cx="0" cy="-21" rx="5" ry="11" fill="url(#petalGrad)"/></g>
      <g transform="rotate(337.5,0,0)"><ellipse cx="0" cy="-21" rx="5" ry="11" fill="url(#petalGrad)"/></g>
    </g>
    <!-- Seed center -->
    <circle cx="0" cy="0" r="13" fill="url(#sunCenter)"/>
    <!-- Seed pattern -->
    <circle cx="0" cy="-5" r="2" fill="#3A2504" opacity="0.6"/>
    <circle cx="4" cy="-2" r="2" fill="#3A2504" opacity="0.6"/>
    <circle cx="4" cy="4" r="2" fill="#3A2504" opacity="0.6"/>
    <circle cx="0" cy="6" r="2" fill="#3A2504" opacity="0.6"/>
    <circle cx="-4" cy="4" r="2" fill="#3A2504" opacity="0.6"/>
    <circle cx="-4" cy="-2" r="2" fill="#3A2504" opacity="0.6"/>
    <circle cx="0" cy="0" r="2" fill="#3A2504" opacity="0.5"/>
  </g>

  <!-- Right sunflower (slightly taller) -->
  <g transform="translate(422, 210)">
    <path d="M0,0 Q5,28 0,68" fill="none" stroke="url(#stemGrad)" stroke-width="4.5" stroke-linecap="round"/>
    <path d="M2,35 Q22,25 18,11 Q4,19 2,35Z" fill="#5C6B3A" opacity="0.85"/>
    <path d="M-2,52 Q-22,42 -18,28 Q-4,36 -2,52Z" fill="#5C6B3A" opacity="0.85"/>
    <g filter="url(#petalGlow)">
      <g transform="rotate(0,0,0)"><ellipse cx="0" cy="-21" rx="5" ry="11" fill="url(#petalGrad)"/></g>
      <g transform="rotate(22.5,0,0)"><ellipse cx="0" cy="-21" rx="5" ry="11" fill="url(#petalGrad)"/></g>
      <g transform="rotate(45,0,0)"><ellipse cx="0" cy="-21" rx="5" ry="11" fill="url(#petalGrad)"/></g>
      <g transform="rotate(67.5,0,0)"><ellipse cx="0" cy="-21" rx="5" ry="11" fill="url(#petalGrad)"/></g>
      <g transform="rotate(90,0,0)"><ellipse cx="0" cy="-21" rx="5" ry="11" fill="url(#petalGrad)"/></g>
      <g transform="rotate(112.5,0,0)"><ellipse cx="0" cy="-21" rx="5" ry="11" fill="url(#petalGrad)"/></g>
      <g transform="rotate(135,0,0)"><ellipse cx="0" cy="-21" rx="5" ry="11" fill="url(#petalGrad)"/></g>
      <g transform="rotate(157.5,0,0)"><ellipse cx="0" cy="-21" rx="5" ry="11" fill="url(#petalGrad)"/></g>
      <g transform="rotate(180,0,0)"><ellipse cx="0" cy="-21" rx="5" ry="11" fill="url(#petalGrad)"/></g>
      <g transform="rotate(202.5,0,0)"><ellipse cx="0" cy="-21" rx="5" ry="11" fill="url(#petalGrad)"/></g>
      <g transform="rotate(225,0,0)"><ellipse cx="0" cy="-21" rx="5" ry="11" fill="url(#petalGrad)"/></g>
      <g transform="rotate(247.5,0,0)"><ellipse cx="0" cy="-21" rx="5" ry="11" fill="url(#petalGrad)"/></g>
      <g transform="rotate(270,0,0)"><ellipse cx="0" cy="-21" rx="5" ry="11" fill="url(#petalGrad)"/></g>
      <g transform="rotate(292.5,0,0)"><ellipse cx="0" cy="-21" rx="5" ry="11" fill="url(#petalGrad)"/></g>
      <g transform="rotate(315,0,0)"><ellipse cx="0" cy="-21" rx="5" ry="11" fill="url(#petalGrad)"/></g>
      <g transform="rotate(337.5,0,0)"><ellipse cx="0" cy="-21" rx="5" ry="11" fill="url(#petalGrad)"/></g>
    </g>
    <circle cx="0" cy="0" r="13" fill="url(#sunCenter)"/>
    <circle cx="0" cy="-5" r="2" fill="#3A2504" opacity="0.6"/>
    <circle cx="4" cy="-2" r="2" fill="#3A2504" opacity="0.6"/>
    <circle cx="4" cy="4" r="2" fill="#3A2504" opacity="0.6"/>
    <circle cx="0" cy="6" r="2" fill="#3A2504" opacity="0.6"/>
    <circle cx="-4" cy="4" r="2" fill="#3A2504" opacity="0.6"/>
    <circle cx="-4" cy="-2" r="2" fill="#3A2504" opacity="0.6"/>
    <circle cx="0" cy="0" r="2" fill="#3A2504" opacity="0.5"/>
  </g>

  <!-- ══ WHEAT STALKS (flanking text — wheat fields = Ukraine) ══ -->
  <!-- Left wheat -->
  <g transform="translate(105, 395)" opacity="0.75">
    <line x1="0" y1="30" x2="0" y2="-30" stroke="#5C6B3A" stroke-width="1.5"/>
    <!-- Grain spikelets -->
    <ellipse cx="-5" cy="18" rx="4.5" ry="7" fill="#C4623A" transform="rotate(-25,-5,18)"/>
    <ellipse cx="5" cy="18" rx="4.5" ry="7" fill="#C4623A" transform="rotate(25,5,18)"/>
    <ellipse cx="-5" cy="4" rx="4.5" ry="7" fill="#C4623A" transform="rotate(-20,-5,4)"/>
    <ellipse cx="5" cy="4" rx="4.5" ry="7" fill="#C4623A" transform="rotate(20,5,4)"/>
    <ellipse cx="-4" cy="-10" rx="4" ry="6" fill="#C4623A" transform="rotate(-15,-4,-10)"/>
    <ellipse cx="4" cy="-10" rx="4" ry="6" fill="#C4623A" transform="rotate(15,4,-10)"/>
    <ellipse cx="0" cy="-24" rx="4" ry="7" fill="#C4623A"/>
  </g>
  <!-- Right wheat -->
  <g transform="translate(415, 395)" opacity="0.75">
    <line x1="0" y1="30" x2="0" y2="-30" stroke="#5C6B3A" stroke-width="1.5"/>
    <ellipse cx="-5" cy="18" rx="4.5" ry="7" fill="#C4623A" transform="rotate(-25,-5,18)"/>
    <ellipse cx="5" cy="18" rx="4.5" ry="7" fill="#C4623A" transform="rotate(25,5,18)"/>
    <ellipse cx="-5" cy="4" rx="4.5" ry="7" fill="#C4623A" transform="rotate(-20,-5,4)"/>
    <ellipse cx="5" cy="4" rx="4.5" ry="7" fill="#C4623A" transform="rotate(20,5,4)"/>
    <ellipse cx="-4" cy="-10" rx="4" ry="6" fill="#C4623A" transform="rotate(-15,-4,-10)"/>
    <ellipse cx="4" cy="-10" rx="4" ry="6" fill="#C4623A" transform="rotate(15,4,-10)"/>
    <ellipse cx="0" cy="-24" rx="4" ry="7" fill="#C4623A"/>
  </g>

  <!-- ══ GOLD DIVIDER ══ -->
  <line x1="90" y1="318" x2="430" y2="318" stroke="url(#goldGrad)" stroke-width="1.5" opacity="0.55"/>

  <!-- ══ VYSHYVANKA STRIPE under divider — thin blue+yellow band ══ -->
  <rect x="90" y="321" width="340" height="3.5" rx="1.5" fill="#1976D2" opacity="0.55"/>
  <rect x="90" y="326" width="340" height="3.5" rx="1.5" fill="#FFD700" opacity="0.65"/>

  <!-- ══ MAIN TEXT ══ -->
  <text x="260" y="368" font-family="Georgia, 'Times New Roman', serif" font-size="66" font-weight="700" fill="#1A1208" text-anchor="middle" letter-spacing="9">MAMA</text>
  <text x="260" y="413" font-family="Georgia, 'Times New Roman', serif" font-size="50" font-weight="400" fill="#C4623A" text-anchor="middle" letter-spacing="15">COOKIN</text>

  <!-- ══ TAGLINE ══ -->
  <text x="260" y="448" font-family="'Helvetica Neue', Arial, sans-serif" font-size="12.5" font-weight="400" fill="#7A6548" text-anchor="middle" letter-spacing="3.8">HOME FOOD · DELIVERED FRESH</text>

  <!-- ══ SMALL SUNFLOWER BUDS beside tagline ══ -->
  <g transform="translate(125,444)" opacity="0.7">
    <g transform="rotate(0,0,0)"><ellipse cx="0" cy="-7" rx="2.5" ry="5" fill="#FFD700"/></g>
    <g transform="rotate(60,0,0)"><ellipse cx="0" cy="-7" rx="2.5" ry="5" fill="#FFD700"/></g>
    <g transform="rotate(120,0,0)"><ellipse cx="0" cy="-7" rx="2.5" ry="5" fill="#FFD700"/></g>
    <g transform="rotate(180,0,0)"><ellipse cx="0" cy="-7" rx="2.5" ry="5" fill="#FFD700"/></g>
    <g transform="rotate(240,0,0)"><ellipse cx="0" cy="-7" rx="2.5" ry="5" fill="#FFD700"/></g>
    <g transform="rotate(300,0,0)"><ellipse cx="0" cy="-7" rx="2.5" ry="5" fill="#FFD700"/></g>
    <circle cx="0" cy="0" r="4" fill="#8B5E0A"/>
  </g>
  <g transform="translate(395,444)" opacity="0.7">
    <g transform="rotate(0,0,0)"><ellipse cx="0" cy="-7" rx="2.5" ry="5" fill="#FFD700"/></g>
    <g transform="rotate(60,0,0)"><ellipse cx="0" cy="-7" rx="2.5" ry="5" fill="#FFD700"/></g>
    <g transform="rotate(120,0,0)"><ellipse cx="0" cy="-7" rx="2.5" ry="5" fill="#FFD700"/></g>
    <g transform="rotate(180,0,0)"><ellipse cx="0" cy="-7" rx="2.5" ry="5" fill="#FFD700"/></g>
    <g transform="rotate(240,0,0)"><ellipse cx="0" cy="-7" rx="2.5" ry="5" fill="#FFD700"/></g>
    <g transform="rotate(300,0,0)"><ellipse cx="0" cy="-7" rx="2.5" ry="5" fill="#FFD700"/></g>
    <circle cx="0" cy="0" r="4" fill="#8B5E0A"/>
  </g>

  <!-- ══ OUTER BORDER ══ -->
  <circle cx="260" cy="260" r="248" fill="none" stroke="#C4623A" stroke-width="2" opacity="0.25"/>
</svg>
